<?xml version="1.0" encoding="utf-8"?><svg viewBox="0 0 48 48" xmlns="http://www.w3.org/2000/svg" xmlns:xlink="http://www.w3.org/1999/xlink"><style>:root>svg{display:none}:root>svg:target{display:block}</style><svg fill="none" viewBox="0 0 32 32" id="Arrow" xmlns="http://www.w3.org/2000/svg">
    <path d="M21.333 27.667a.987.987 0 0 1-.706-.294L9.96 16.707a1 1 0 0 1 0-1.414L20.627 4.627A1 1 0 0 1 22.04 6.04L12.08 16l9.96 9.96a1 1 0 0 1-.707 1.707Z" fill="#000"/>
</svg><svg fill="none" viewBox="0 0 32 32" id="Arrow-r" xmlns="http://www.w3.org/2000/svg">
    <path d="M10.667 4.333a.987.987 0 0 1 .706.294L22.04 15.293a1 1 0 0 1 0 1.414L11.373 27.373A1 1 0 0 1 9.96 25.96L19.92 16 9.96 6.04a1 1 0 0 1 .707-1.707Z" fill="#000"/>
</svg><svg fill="none" viewBox="0 0 48 48" id="Cameras" xmlns="http://www.w3.org/2000/svg">
    <g clip-path="url(#ca)" stroke="#000" stroke-width="2" stroke-linecap="round" stroke-linejoin="round">
        <path d="M10 14h2a4 4 0 0 0 4-4 2 2 0 0 1 2-2h12a2 2 0 0 1 2 2 4 4 0 0 0 4 4h2a4 4 0 0 1 4 4v18a4 4 0 0 1-4 4H10a4 4 0 0 1-4-4V18a4 4 0 0 1 4-4"/>
        <path d="M24 32a6 6 0 1 0 0-12 6 6 0 0 0 0 12Z"/>
    </g>
    <defs>
        <clipPath id="ca">
            <path fill="#fff" d="M0 0h48v48H0z"/>
        </clipPath>
    </defs>
</svg><svg fill="none" viewBox="0 0 32 32" id="Cart" xmlns="http://www.w3.org/2000/svg">
    <path d="M3 5h4l3 17h16m-16-5.333h15.59a.501.501 0 0 0 .49-.402l1.8-9a.5.5 0 0 0-.49-.598H8M12 26a1 1 0 1 1-2 0 1 1 0 0 1 2 0Zm14 0a1 1 0 1 1-2 0 1 1 0 0 1 2 0Z" stroke="#000" stroke-width="1.5" stroke-linecap="round" stroke-linejoin="round"/>
</svg><svg fill="none" viewBox="0 0 48 48" id="Computers" xmlns="http://www.w3.org/2000/svg">
    <g clip-path="url(#ea)" stroke="#000" stroke-width="2" stroke-linecap="round">
        <path d="M40 8H8a2 2 0 0 0-2 2v20a2 2 0 0 0 2 2h32a2 2 0 0 0 2-2V10a2 2 0 0 0-2-2ZM14 40h20M18 32v8M30 32v8" stroke-linejoin="round"/>
        <path d="M6.857 27.429h34.286"/>
    </g>
    <defs>
        <clipPath id="ea">
            <path fill="#fff" d="M0 0h48v48H0z"/>
        </clipPath>
    </defs>
</svg><svg fill="none" viewBox="0 0 32 32" id="Favorites" xmlns="http://www.w3.org/2000/svg">
    <path d="M11 7c-2.761 0-5 2.216-5 4.95 0 2.207.875 7.445 9.488 12.74a.985.985 0 0 0 1.024 0C25.125 19.395 26 14.157 26 11.95 26 9.216 23.761 7 21 7s-5 3-5 3-2.239-3-5-3Z" stroke="#000" stroke-width="1.5" stroke-linecap="round" stroke-linejoin="round"/>
</svg><svg fill="none" viewBox="0 0 48 48" id="Gaming" xmlns="http://www.w3.org/2000/svg">
    <g clip-path="url(#ga)" stroke="#000" stroke-linecap="round" stroke-linejoin="round">
        <path d="M40 12H8a4 4 0 0 0-4 4v16a4 4 0 0 0 4 4h32a4 4 0 0 0 4-4V16a4 4 0 0 0-4-4ZM12 24h8m-4-4v8" stroke-width="2"/>
        <path d="M30 22v.02M36 26v.02" stroke-width="3"/>
    </g>
    <defs>
        <clipPath id="ga">
            <path fill="#fff" d="M0 0h48v48H0z"/>
        </clipPath>
    </defs>
</svg><svg fill="none" viewBox="0 0 48 48" id="Headphones" xmlns="http://www.w3.org/2000/svg">
    <g clip-path="url(#ha)" stroke="#000" stroke-width="2" stroke-linecap="round" stroke-linejoin="round">
        <path d="M14 26h-2a4 4 0 0 0-4 4v6a4 4 0 0 0 4 4h2a4 4 0 0 0 4-4v-6a4 4 0 0 0-4-4ZM36 26h-2a4 4 0 0 0-4 4v6a4 4 0 0 0 4 4h2a4 4 0 0 0 4-4v-6a4 4 0 0 0-4-4Z"/>
        <path d="M8 30v-6a16 16 0 1 1 32 0v6"/>
    </g>
    <defs>
        <clipPath id="ha">
            <path fill="#fff" d="M0 0h48v48H0z"/>
        </clipPath>
    </defs>
</svg><svg fill="none" viewBox="0 0 32 32" id="Like" xmlns="http://www.w3.org/2000/svg">
    <path d="m5.934 18.544 9.381 8.813c.325.305.487.457.685.457.198 0 .36-.152.685-.457l9.38-8.813a6.938 6.938 0 0 0 .732-9.31l-.412-.53c-2.625-3.383-7.892-2.816-9.736 1.048a.719.719 0 0 1-1.298 0C13.507 5.888 8.24 5.32 5.616 8.703l-.413.532a6.938 6.938 0 0 0 .731 9.31Z" stroke="#919191" stroke-opacity=".77" stroke-width="1.4"/>
</svg><svg fill="none" viewBox="0 0 48 48" id="Phones" xmlns="http://www.w3.org/2000/svg">
    <g clip-path="url(#ja)" stroke="#000">
        <path d="M33.375 5.25h-18.75a2.344 2.344 0 0 0-2.344 2.344v32.812a2.344 2.344 0 0 0 2.344 2.344h18.75a2.344 2.344 0 0 0 2.344-2.344V7.594a2.344 2.344 0 0 0-2.344-2.344Z" stroke-width="2" stroke-linecap="round" stroke-linejoin="round"/>
        <path d="M22 6h4.688" stroke-width="3" stroke-linecap="round" stroke-linejoin="round"/>
        <path d="M24 37.719v.021" stroke-width="2.5" stroke-linecap="round" stroke-linejoin="round"/>
        <path stroke-width="2" d="M13 34h22"/>
    </g>
    <defs>
        <clipPath id="ja">
            <path fill="#fff" d="M0 0h48v48H0z"/>
        </clipPath>
    </defs>
</svg><svg fill="none" viewBox="0 0 25 24" id="Search" xmlns="http://www.w3.org/2000/svg">
    <path d="m20.933 20-3.778-3.784m2.094-5.058a7.158 7.158 0 1 1-14.316 0 7.158 7.158 0 0 1 14.316 0v0Z" stroke="#000" stroke-width="1.5" stroke-linecap="round"/>
</svg><svg fill="none" viewBox="0 0 48 48" id="SmartWatches" xmlns="http://www.w3.org/2000/svg">
    <g clip-path="url(#la)" stroke="#000" stroke-width="2" stroke-linecap="round">
        <path d="M30 12H18a6 6 0 0 0-6 6v12a6 6 0 0 0 6 6h12a6 6 0 0 0 6-6V18a6 6 0 0 0-6-6ZM18 36v6h12v-6M18 12V6h12v6" stroke-linejoin="round"/>
        <path d="M20.714 18v11M24.714 23v6M28.714 21v8"/>
    </g>
    <defs>
        <clipPath id="la">
            <path fill="#fff" d="M0 0h48v48H0z"/>
        </clipPath>
    </defs>
</svg><svg fill="none" viewBox="0 0 32 32" id="User" xmlns="http://www.w3.org/2000/svg">
    <path d="M24 27v-2.667c0-1.414-.478-2.77-1.328-3.77C21.822 19.561 20.67 19 19.467 19h-7.934c-1.202 0-2.355.562-3.205 1.562-.85 1-1.328 2.357-1.328 3.771V27M21 9.5a4.5 4.5 0 1 1-9 0 4.5 4.5 0 0 1 9 0Z" stroke="#000" stroke-width="1.5" stroke-linecap="round" stroke-linejoin="round"/>
</svg></svg>