<svg width="41" height="40" viewBox="0 0 41 40" fill="none" xmlns="http://www.w3.org/2000/svg">
<g clip-path="url(#clip0_0_177)">
<path fill-rule="evenodd" clip-rule="evenodd" d="M20.8404 39.5106C31.8567 39.5106 40.7872 30.6659 40.7872 19.7553C40.7872 8.84476 31.8567 0 20.8404 0C9.82404 0 0.893555 8.84476 0.893555 19.7553C0.893555 30.6659 9.82404 39.5106 20.8404 39.5106Z" fill="#F5F6FA" fill-opacity="0.01"/>
<path d="M21.3404 18.5871V21.9233H26.0594C25.3705 23.8649 23.5156 25.2594 21.3404 25.2594C18.5814 25.2594 16.3362 23.0142 16.3362 20.2552C16.3362 17.4962 18.5814 15.2509 21.3404 15.2509C22.5364 15.2509 23.6874 15.6796 24.5815 16.4586L26.7734 13.9431C25.2721 12.6354 23.3438 11.9148 21.3404 11.9148C16.7415 11.9148 13 15.6563 13 20.2552C13 24.8541 16.7415 28.5956 21.3404 28.5956C25.9393 28.5956 29.6809 24.8541 29.6809 20.2552V18.5871H21.3404Z" fill="black"/>
<mask id="mask0_0_177" style="mask-type:alpha" maskUnits="userSpaceOnUse" x="13" y="11" width="17" height="18">
<path d="M21.3404 18.5871V21.9233H26.0594C25.3705 23.8649 23.5156 25.2594 21.3404 25.2594C18.5814 25.2594 16.3362 23.0142 16.3362 20.2552C16.3362 17.4962 18.5814 15.2509 21.3404 15.2509C22.5364 15.2509 23.6874 15.6796 24.5815 16.4586L26.7734 13.9431C25.2721 12.6354 23.3438 11.9148 21.3404 11.9148C16.7415 11.9148 13 15.6563 13 20.2552C13 24.8541 16.7415 28.5956 21.3404 28.5956C25.9393 28.5956 29.6809 24.8541 29.6809 20.2552V18.5871H21.3404Z" fill="white"/>
</mask>
<g mask="url(#mask0_0_177)">
<path d="M34.4469 7.14893H8.23413V33.3617H34.4469V7.14893Z" fill="white"/>
</g>
</g>
<defs>
<clipPath id="clip0_0_177">
<rect width="41" height="40" fill="white"/>
</clipPath>
</defs>
</svg>
