<svg width="40" height="40" viewBox="0 0 40 40" fill="none" xmlns="http://www.w3.org/2000/svg">
<g clip-path="url(#clip0_0_161)">
<path fill-rule="evenodd" clip-rule="evenodd" d="M19.9468 39.5106C30.9631 39.5106 39.8936 30.6659 39.8936 19.7553C39.8936 8.84476 30.9631 0 19.9468 0C8.93049 0 0 8.84476 0 19.7553C0 30.6659 8.93049 39.5106 19.9468 39.5106Z" fill="#F5F6FA" fill-opacity="0.01"/>
<path d="M31.1701 13.8614C30.4246 14.1918 29.6247 14.4158 28.7842 14.5158C29.6424 14.0019 30.2993 13.1868 30.6106 12.2185C29.8056 12.6944 28.9171 13.04 27.9703 13.2273C27.2122 12.4185 26.1338 11.9148 24.9376 11.9148C22.6429 11.9148 20.7823 13.7754 20.7823 16.0689C20.7823 16.3941 20.819 16.7118 20.8899 17.0156C17.437 16.8422 14.3752 15.1879 12.326 12.6742C11.9678 13.2868 11.7641 14.0006 11.7641 14.7626C11.7641 16.2043 12.4982 17.4763 13.612 18.2205C12.9311 18.1978 12.2906 18.0104 11.7299 17.6991V17.751C11.7299 19.7635 13.1627 21.4431 15.0625 21.8253C14.7145 21.919 14.3474 21.9709 13.9677 21.9709C13.6994 21.9709 13.4399 21.9443 13.1855 21.8937C13.7145 23.5454 15.2486 24.7466 17.0662 24.7795C15.6448 25.8934 13.8525 26.5553 11.9058 26.5553C11.5704 26.5553 11.2401 26.5351 10.9148 26.4984C12.7539 27.6793 14.9373 28.3679 17.2839 28.3679C24.9276 28.3679 29.1057 22.0367 29.1057 16.546L29.0918 16.0081C29.9082 15.4258 30.6144 14.6943 31.1701 13.8614Z" fill="#010002"/>
<mask id="mask0_0_161" style="mask-type:alpha" maskUnits="userSpaceOnUse" x="10" y="11" width="22" height="18">
<path d="M31.1701 13.8614C30.4246 14.1918 29.6247 14.4158 28.7842 14.5158C29.6424 14.0019 30.2993 13.1868 30.6106 12.2185C29.8056 12.6944 28.9171 13.04 27.9703 13.2273C27.2122 12.4185 26.1338 11.9148 24.9376 11.9148C22.6429 11.9148 20.7823 13.7754 20.7823 16.0689C20.7823 16.3941 20.819 16.7118 20.8899 17.0156C17.437 16.8422 14.3752 15.1879 12.326 12.6742C11.9678 13.2868 11.7641 14.0006 11.7641 14.7626C11.7641 16.2043 12.4982 17.4763 13.612 18.2205C12.9311 18.1978 12.2906 18.0104 11.7299 17.6991V17.751C11.7299 19.7635 13.1627 21.4431 15.0625 21.8253C14.7145 21.919 14.3474 21.9709 13.9677 21.9709C13.6994 21.9709 13.4399 21.9443 13.1855 21.8937C13.7145 23.5454 15.2486 24.7466 17.0662 24.7795C15.6448 25.8934 13.8525 26.5553 11.9058 26.5553C11.5704 26.5553 11.2401 26.5351 10.9148 26.4984C12.7539 27.6793 14.9373 28.3679 17.2839 28.3679C24.9276 28.3679 29.1057 22.0367 29.1057 16.546L29.0918 16.0081C29.9082 15.4258 30.6144 14.6943 31.1701 13.8614Z" fill="white"/>
</mask>
<g mask="url(#mask0_0_161)">
<path d="M33.5531 7.14893H7.34033V33.3617H33.5531V7.14893Z" fill="white"/>
</g>
</g>
<defs>
<clipPath id="clip0_0_161">
<rect width="40" height="40" fill="white"/>
</clipPath>
</defs>
</svg>
