<svg width="285" height="29" viewBox="0 0 285 29" fill="none" xmlns="http://www.w3.org/2000/svg">
<path fill-rule="evenodd" clip-rule="evenodd" d="M182.875 16.3457H193.483V18.464H182.875V16.3457ZM6.45662 3.49439L5.50707 24.7592V25.1281C5.50707 26.9307 6.12449 27.2996 9.44757 27.5042V28.4884C7.02655 28.3239 6.077 28.2833 4.74742 28.2833C3.4184 28.2833 2.46885 28.3239 0 28.4884V27.5042C3.32346 27.2998 3.79807 26.9717 3.8928 24.7594L4.89005 4.64192V4.3962C4.89005 2.51107 4.22534 2.10132 0.949552 1.93789V0.913521C2.80082 1.0359 3.51298 1.07734 4.84238 1.07734C6.59925 1.07734 7.54865 1.03589 9.35279 0.872267L18.1833 21.6043L27.1562 0.872267C29.2928 1.03589 30.2898 1.07734 31.7139 1.07734C32.9006 1.07734 33.6603 1.0359 35.4645 0.913521V1.93789C32.2362 2.10132 31.524 2.51107 31.524 4.35494V4.64192L32.0463 24.7594C32.0937 26.9717 32.521 27.2998 35.9394 27.5042V28.4884C32.9485 28.242 31.8092 28.1601 30.005 28.1601C28.2009 28.1601 27.0615 28.242 24.0706 28.4884V27.5042C27.2987 27.3406 28.0112 26.8898 28.0112 24.964V24.7592L27.5837 3.53544L19.7498 21.809L19.1804 23.1614L18.5157 24.6772L17.8985 26.2343L17.3762 27.5864H16.664L16.1423 26.275L15.4773 24.6772L14.8127 23.0795L14.2428 21.6454L6.45662 3.49439ZM42.1077 16.7286C42.5826 12.0168 44.3866 9.59919 47.4254 9.59919C50.5109 9.59919 52.0777 11.8939 52.3627 16.7286H42.1077ZM48.2797 27.4636C43.9593 27.4636 42.0605 24.5955 42.0129 18.2036H56.1607C56.0657 11.8939 53.075 8.53396 47.4726 8.53396C41.7753 8.53396 38.2149 12.5087 38.2149 18.8184C38.2149 25.1281 41.7753 28.8164 47.8998 28.8164C52.5524 28.8164 55.591 26.3162 56.2084 22.096H54.3091C53.7394 25.5787 51.6504 27.4636 48.2797 27.4636ZM58.9875 10.0502V9.3126C61.6934 9.10793 63.3076 8.86181 65.2543 8.37015C65.4916 9.88618 65.5865 10.5417 65.6816 11.7709V12.2215C66.726 9.88618 68.7675 8.53396 71.2359 8.53396C73.6098 8.53396 75.3668 9.88618 75.3668 11.8528C75.3668 13.0408 74.5599 13.8197 73.3729 13.8197C72.2806 13.8197 71.4267 13.2459 71.4267 12.4266C71.4267 12.3445 71.4737 12.1809 71.5211 12.0168L71.6159 11.6069V11.2384C71.6159 10.6646 71.0462 10.2549 70.1916 10.2549C67.7231 10.2549 66.1562 12.8363 66.1562 16.8924V25.4559C66.1562 27.2175 66.6312 27.5455 69.5268 27.6685V28.4882C66.9159 28.2831 65.9189 28.2418 64.2572 28.2418C62.5479 28.2418 61.5511 28.2831 58.9398 28.4882V27.6685C61.8361 27.5455 62.3582 27.2175 62.3582 25.4559V12.7132V12.0577C62.3108 10.2957 62.0732 10.0911 59.6047 10.0502H58.9875ZM93.5281 8.16566V14.9257H92.4834C91.6289 11.3614 89.8726 9.64025 86.9758 9.64025C83.4156 9.64025 81.3262 12.9589 81.3262 18.8182C81.3262 24.5545 83.1783 27.4636 86.8333 27.4636C89.7773 27.4636 91.5333 25.6606 92.1038 22.0551H94.05C93.4328 26.439 90.7264 28.8162 86.4539 28.8162C80.9466 28.8162 77.1958 24.8002 77.1958 18.8182C77.1958 12.7132 80.9938 8.53396 86.5962 8.53396C88.6377 8.53396 89.9196 8.98457 91.4392 10.2549L92.7208 8.16566H93.5281ZM101.324 16.7286C101.799 12.0168 103.603 9.59919 106.642 9.59919C109.728 9.59919 111.294 11.8939 111.58 16.7286H101.324ZM107.497 27.4636C103.176 27.4636 101.277 24.5955 101.229 18.2036H115.377C115.282 11.8939 112.292 8.53396 106.69 8.53396C100.992 8.53396 97.4315 12.5087 97.4315 18.8184C97.4315 25.1281 100.992 28.8164 107.117 28.8164C111.769 28.8164 114.808 26.3162 115.425 22.096H113.526C112.956 25.5787 110.868 27.4636 107.497 27.4636ZM128.525 27.7089C125.107 27.7089 123.303 24.6364 123.303 18.7771C123.303 12.8361 124.965 9.92723 128.383 9.92723C131.896 9.92723 133.7 13.0408 133.7 19.0643C133.7 24.7592 131.943 27.7089 128.525 27.7089ZM137.451 24.2266V0.571533C135.077 1.1178 132.94 1.44564 130.282 1.69177V2.38831C133.273 2.38831 133.652 2.67489 133.652 4.80555V11.976C131.896 9.51748 130.519 8.7795 127.956 8.7795C122.876 8.7795 119.315 12.9181 119.315 18.8182C119.315 24.7183 122.923 28.8571 128.098 28.8571C130.804 28.8571 132.656 27.7914 133.985 25.4968C134.175 27.0536 134.175 27.2173 134.65 28.7749C136.596 28.2416 137.404 28.078 140.204 27.7914L140.917 27.7091V27.0126C137.736 26.9309 137.451 26.726 137.451 24.2266ZM146.608 16.7286C147.083 12.0168 148.887 9.59919 151.925 9.59919C155.011 9.59919 156.577 11.8939 156.862 16.7286H146.608ZM152.78 27.4636C148.459 27.4636 146.56 24.5955 146.513 18.2036H160.661C160.566 11.8939 157.574 8.53396 151.973 8.53396C146.275 8.53396 142.714 12.5087 142.714 18.8184C142.714 25.1281 146.275 28.8164 152.399 28.8164C157.052 28.8164 160.091 26.3162 160.708 22.096H158.809C158.24 25.5787 156.15 27.4636 152.78 27.4636ZM164.69 28.8572V22.0141L165.734 21.9732C166.589 25.702 168.583 27.5042 171.907 27.5042C174.708 27.5042 176.797 25.9063 176.797 23.8167C176.797 22.4236 175.895 21.4814 173.568 20.5797L171.763 19.8832L169.58 19.0231C166.114 17.63 165.022 16.4826 165.022 14.1064C165.022 10.8695 167.966 8.65673 172.144 8.65673C173.996 8.65673 175.372 9.02582 176.987 9.96789L177.793 8.28803H178.648V14.6386H177.556C177.128 11.3612 175.562 9.80426 172.571 9.80426C170.055 9.80426 168.109 11.279 168.109 13.205C168.109 14.8438 168.82 15.3764 173.141 17.0152L175.135 17.7531C178.743 19.1048 180.025 20.4159 180.025 22.8334C180.025 26.275 176.845 28.7337 172.381 28.7337C170.197 28.7337 168.488 28.2416 166.685 27.0126L165.544 28.8571L164.69 28.8572ZM206.425 14.7211C208.941 14.7211 210.365 15.0896 211.457 16.032C212.549 16.9743 213.166 18.7361 213.166 20.7029C213.166 24.8004 210.792 27.0949 206.567 27.0949H204.858C202.342 27.0949 201.914 26.767 201.914 24.964V14.7211H206.425ZM201.914 2.30638H205.949C209.937 2.30638 211.694 3.98605 211.694 7.79677C211.694 9.68111 211.172 11.0337 210.128 12.0988C209.083 13.1231 207.801 13.4508 205.142 13.4508H201.914V2.30638ZM215.92 7.71466C215.92 5.584 214.875 3.69907 213.071 2.51087C211.457 1.48689 209.605 1.03569 206.52 1.03569H194.033V2.06047C197.451 2.22429 197.926 2.55232 197.926 4.7645V24.6364C197.926 26.849 197.546 27.1355 194.033 27.3815V28.3648H206.044C209.558 28.3648 211.457 27.9959 213.45 26.9307C215.825 25.6197 217.392 23.1202 217.392 20.5391C217.392 18.3263 216.3 16.3188 214.447 15.0896C213.45 14.4343 212.406 14.0652 210.697 13.7784C214.116 12.6723 215.92 10.5827 215.92 7.71466ZM225.141 16.7286C225.615 12.0168 227.421 9.59919 230.458 9.59919C233.545 9.59919 235.111 11.8939 235.396 16.7286H225.141ZM231.313 27.4636C226.992 27.4636 225.093 24.5955 225.045 18.2036H239.193C239.099 11.8939 236.108 8.53396 230.506 8.53396C224.808 8.53396 221.248 12.5087 221.248 18.8184C221.248 25.1281 224.808 28.8164 230.932 28.8164C235.586 28.8164 238.625 26.3162 239.24 22.096H237.341C236.773 25.5787 234.683 27.4636 231.313 27.4636ZM241.707 10.214V9.51768C244.462 9.18984 246.076 8.862 247.973 8.28843C248.212 9.2305 248.354 10.2959 248.449 11.8528C250.157 9.64044 252.104 8.65713 254.858 8.65713C257.706 8.65713 260.175 9.92743 261.126 11.9347C261.6 12.9181 261.837 14.0654 261.837 15.6223V25.4559C261.837 27.2175 262.312 27.5455 265.207 27.6685V28.4884C262.692 28.2831 261.742 28.2418 260.034 28.2418C258.276 28.2418 257.328 28.2831 254.858 28.4884V27.6685C257.421 27.5864 258.039 27.1766 258.039 25.5378V15.4997C258.039 11.9347 256.806 10.501 253.766 10.501C250.538 10.501 248.83 12.2628 248.83 15.6223V25.5378C248.83 27.1766 249.446 27.5864 251.915 27.6685V28.4884C249.446 28.2831 248.497 28.2418 246.787 28.2418C245.125 28.2418 244.129 28.2831 241.659 28.4884V27.6685C244.555 27.5455 245.029 27.2175 245.029 25.4559V12.7951V12.1809C244.984 10.501 244.699 10.2549 242.325 10.2549C242.182 10.2549 241.944 10.214 241.707 10.214ZM267.054 28.3648L279.92 10.0908H274.079C270.994 10.0908 270.235 10.6646 268.525 14.352H267.576L268.668 9.02581H285V9.02602L272.086 27.2996H277.64C280.871 27.2996 282.198 26.1931 283.623 22.4649H284.622L283.386 28.3648H267.054Z" fill="white"/>
</svg>
