<?xml version="1.0" encoding="utf-8"?><svg viewBox="0 0 89 67" xmlns="http://www.w3.org/2000/svg" xmlns:xlink="http://www.w3.org/1999/xlink"><style>:root>svg{display:none}:root>svg:target{display:block}</style><svg fill="none" viewBox="0 0 89 67" id="G" xmlns="http://www.w3.org/2000/svg"><g clip-path="url(#aa)"><path d="M40.93 39.422c.45 1.65-.272 2.92-1.089 4.005a26.9 26.9 0 0 1-3.91 4.077c-6.708 5.35-14.455 7.354-22.929 6.478-2.153-.23-4.31-.773-6.698-1.236.47 2.227 2.261 3.897 2.872 6.17-1.013-.07-1.471-.736-1.865-1.279a212.159 212.159 0 0 1-4.734-6.824c-.726-1.117-.622-1.758.495-2.33 2.313-1.222 4.774-1.618 7.319-1.157.094.03.189.216.362.48-1.17 1.852-3.597.547-5.097 1.98 2.992 1.8 6.27 2.239 9.545 2.366 3.431.125 6.813-.077 10.094-1.09 3.22-.98 6.075-2.597 8.866-4.494 2.822-1.836 5-4.243 6.77-7.146Z" fill="#fff"/></g><path d="M29.617 2.667a4.29 4.29 0 0 0-1.2.564c-.85.6-1.473 1.703-1.157 3.116.208.965.895 1.657 1.813 2.035.361.178 1.17.517 1.324.927.186.512-.189.994-.486 1.146-.584.332-1.274.063-1.947.175-.416.069-.685.224-.758.512a.88.88 0 0 0 .107.729c.41.521 1.33.337 1.903.369 1.037-.088 1.823-.597 2.226-1.09.258-.31.536-.943.619-1.328.192-.895-.275-1.803-.82-2.24-.794-.619-2.32-.695-2.447-2.172-.045-.511.58-1.093 1.287-1.131.467-.022.711.468.866.738.177.328.355.91.701.96.542.072.97-.658.915-1.072 0-.126-.194-.696-.325-.92-.293-1.101-1.873-1.605-2.62-1.318Zm4.61 4.947c.51.096 1.16-.47 2.222-.526.316.075.713.849.316 1.286-.252.255-1.441.045-2.145.182-.403.085-.921.326-1.137.5-.338.274-.752.724-.676 1.478.008.324.256.646.483.895.544.719 1.144 1.035 1.932 1.442.227.122.787.28 1.028.263.339-.007.753-.47.88-.738.302-.729.522-1.48.76-2.271.186-.699.5-1.68.44-2.586-.035-.736-.438-1.454-.92-1.688-.857-.287-1.57-.066-2.494.287-.466.148-1.023.357-1.012.921.016.255.068.43.322.555Zm1.31 2.123c.266.014.803 0 .968.172-.052.487-.196 1.457-.64 1.523-.657-.167-1.657-.568-1.586-1.377.238-.257.726-.346 1.258-.318Zm5.553 1.484c-.024-.706-.145-1.83-.24-2.53-.047-.358-.108-1.124-.267-1.352-.282-.396-1-.26-1.255.023-.065.078-.236.37-.14.788.008.733.564 2.677.753 3.964.075.627.104 1.151.525 1.294.688.284 1.306-.637 1.651-1.107 1.138-1.584 1.596-2.324 2.172-3.122.315-.446.755-.752.612-1.4-.098-.545-.655-.73-1.09-.48-.508.284-.733.95-1.118 1.529-.534.662-1.047 1.663-1.603 2.393Zm5.539.737c.346-.076.934-.183 1.379-.263.66-.114 1-.275 1.65-.432.39-.086.703-.531.715-.91.027-.25-.11-.828-.19-1.005-.45-1.47-1.55-1.993-2.964-1.663-.575.108-1.258.585-1.658 1.177-.51.566-.756 1.427-.617 2.652.256 1.181.575 1.623 1.655 2.2.67.451 2.054.414 2.818-.027.258-.17.372-.594.1-.946-.496-.376-.964.335-1.877.042-.6-.19-.948-.353-1.011-.825Zm.276-2.631c.952-.618 1.782-.475 2.032.622-.094.229-.523.423-.85.46-.498.045-1.376.235-1.623.167-.085-.263.049-.995.441-1.25Zm10.008-2.848c-.596.177-.611 1.26-.77 1.975-.34 1.484-.522 3.084-.983 4.654-.177.615-.538 1.774.174 1.961.37.095.939-.225 1.124-.515.271-.436.242-1.368.388-1.944.259-1.127.515-2.761.796-3.957.128-.55.533-1.323.404-1.703-.144-.508-.785-.575-1.133-.47Zm5.908.72c-2.533.128-3.429 2.356-3.793 4.218-.266.789-.523 2.564.353 3.205.588.428 1.443.996 2.625.867 3.19-.34 4.017-4.73 3.402-6.245-.322-.822-1.17-2.122-2.587-2.045Zm-1.69 2.694c.295-.405.965-1.01 1.51-.982.713.047 1.361 1.115 1.377 1.637.043 1.201-.709 3.262-2.02 3.406-.512.059-1.33-.337-1.505-.806-.24-.659.029-2.418.637-3.255Zm13.257-1.816c-.723.05-.902.412-1.314.988a39.51 39.51 0 0 0-1.736 2.717 42.328 42.328 0 0 1-1.024 1.709c-.225.398-.775.946-.801 1.464-.02.589.527.872 1.14.669.67-.212 1.147-1.273 1.489-1.843.58-.966 1.204-2.083 1.924-3.176.318-.473 1.223-1.589 1.1-2.151-.065-.33-.337-.415-.778-.377Zm-5.123-.412c-.692.026-1.492.406-1.774.813-.448.643-.506 2.002.09 2.487 1.772 1.495 4.014-.015 3.76-1.618-.116-.772-1.142-1.725-2.076-1.682Zm.572 2.2c-.2.964-1.762-.115-.77-.715.473-.077.872.275.77.715Zm5.393 2.664c-.804.014-1.814.513-2.17 1.095-.529.874-.396 2.155.258 2.49.614.319 1.725.196 2.3-.053.472-.204 1.077-.731 1.204-1.14.413-1.252-.858-2.413-1.592-2.392Zm.149 1.93c-.053.501-.523.691-.951.477-.934-.492 1.077-1.547.95-.477ZM23.6 25.515c.88-.076 1.591.126 2.353-.287.776-.285 1.647-.94 2.044-1.503.658-.902.6-2.217.089-2.989-.815-1.085-1.804-1.316-3.19-1.532-.573-.032-1.434-.01-1.743.521-.375 1.157-.719 2.684-.93 3.886-.144.97-.272 1.787-.41 2.829-.076.597-.334 1.302.153 1.494.758.29 1.192-.353 1.336-1.056.107-.482.147-.998.298-1.363Zm3.065-2.507c-.518.903-1.812 1.302-2.977 1.137.021-.744.31-1.882.56-2.785.178-.628.136-.76.78-.734 1.321.026 2.379 1.08 1.637 2.382Zm4.277 1.379c.346-.076.934-.184 1.379-.264.66-.113 1-.274 1.65-.431.39-.086.704-.532.715-.91.027-.251-.11-.829-.19-1.006-.45-1.47-1.55-1.993-2.964-1.663-.575.109-1.258.586-1.658 1.177-.51.566-.756 1.427-.617 2.652.256 1.181.576 1.623 1.655 2.201.67.45 2.054.413 2.818-.027.258-.17.373-.595.1-.947-.495-.376-.964.335-1.877.042-.6-.19-.948-.353-1.011-.824Zm.276-2.632c.952-.618 1.782-.474 2.033.622-.095.23-.524.424-.851.46-.498.046-1.376.235-1.622.167-.085-.262.048-.994.44-1.249Zm6.338-1.333a.719.719 0 0 0-.535-.267c-.755-.051-.78.453-1.013 1.47-.244 1.115-.483 2.99-.7 4.122-.073.288-.163.602-.125.775.053.174.327.372.535.408.526.083.793.083.982-.375.229-.568.38-2.142.49-2.792.026-.237 1.04-.778 1.628-.885.246-.059.86-.15 1.16-.188.286-.04.835-.306.81-.872-.028-.27-.343-.487-.633-.545-.494-.122-1.088.04-1.478.14-.363.103-.883.498-1.22.35.076-.456.202-.851.099-1.34Zm9.212 3.63c-.055-.415.667-2.324.141-2.815-.14-.142-.458-.19-.62-.122-.645.242-.692.955-.816 1.871-.07.4-.172.967-.291 1.56-.134.605-.215 1.245-.307 1.713-.115.566-.24 1.073.036 1.271.142.114.617.15.853.048.266-.113.504-.51.732-.937.391-.775.823-1.265 1.28-1.864.246-.327.462-.782.873-.81.187.64-.18 1.446-.359 2.215-.072.288-.177.615-.168.799.046.765.927.688 1.387.329.597-.458 1.14-1.345 1.584-1.945.151-.238.345-.471.624-.582.039.567-.139 1.055-.26 1.535-.104.453-.3 1.109-.255 1.62.078.867 1.103.763 1.4.204.158-.294.262-1.015.35-1.442.092-.483.173-.981.277-1.435.16-.715.67-2.491.084-2.806-.707-.37-1.302.468-1.637.841-.208.232-.506.524-.715.77-.208.245-.453.43-.866.74.127-1.339.141-3.083-1.241-2.651-.539.169-1.06.832-1.41 1.231-.191.205-.512.58-.676.661Zm10.233-1.6c-.453.023-.692.153-1.053.368-.573.362-.658.508-1.031.976-.708.84-1.03 2.425-.398 3.52.36.46 1.12.99 1.823 1.134.84.187 1.504.017 2.07-.275.99-.572 1.742-1.577 1.705-2.693.131-1.788-1.06-3.18-3.116-3.03ZM55.69 25.96c-.047-.892.757-2.116 1.524-2.177.993-.078 1.719 1.054 1.345 2.197-.19.614-.845 1.08-1.29 1.16-.944.14-1.54-.486-1.58-1.18Zm7.021-.135c-.085-.924.585-2.613-.551-2.521-.654.058-.716 1.05-.827 1.842-.146.984-.374 1.818-.574 2.783-.19.867-.452 1.754.572 1.65.384-.03.97-1.192 1.251-1.585.49-.652.392-.649 1.185-1.495.32-.36.653-.86 1.09-.87.018.635-.092 1.017-.246 1.677-.17.672-.316 1.403-.346 2.09.267.534 1.237.41 1.468-.043.072-.148.051-.488.078-.738.12-1.015.635-2.566.653-3.535.005-.45-.164-.989-.32-1.104-.505-.42-1.088-.1-1.478.126a5.309 5.309 0 0 0-1.302 1.144c-.178.221-.377.369-.653.58Zm8.375-1.738c-.054-.963.237-1.312.412-2.04.176-.474.298-.827-.403-.859-1.106-.06-1.09.871-1.301 1.665-.09.315-.247 1.143-.501 1.285-.239.13-1.198.015-1.498.054-.29.082-.556.335-.626.596-.094.23-.042.67.234.855.384.237 1.404-.092 1.672.302-.14.802-.222 1.44-.361 1.961-.04.25-.319 1.29-.387 1.536-.051.22-.483 1.385-.423 1.617.077.205.51.377.82.367.706-.024.952-1.56 1.1-2.024.07-.274.323-1.331.38-1.607.077-.33.34-1.893.627-2.088.274-.196 1.406.021 1.86-.156.31-.122.519-.508.475-.893-.07-.67-1.78-.215-2.08-.57Zm4.89.922c-.141 0 .16-.996.292-1.574.084-.4.414-.998.197-1.471-.116-.238-.479-.402-.807-.366-.64.073-.76 1.341-.939 2.238-.174.854-.35 1.455-.554 2.461-.32 1.445-.54 2.055-.846 3.36-.18.784-.247 1.55.357 1.699.87.161.941-.52 1.085-1.224.27-1.083.31-1.74.637-2.706.162-.335.392-.648.666-.845.246-.2.576-.39 1.035-.341.215.233-.008 1.815-.029 2.15-.17 1.489-.44 2.713-.313 2.98.127.267.726.456 1.066.168.385-.311.441-1.248.52-2.127.087-.835.256-1.902.285-2.588.046-.967-.129-1.985-.728-2.175-.804-.253-1.198.41-1.925.361Z" fill="#fff"/><defs><clipPath id="aa"><path fill="#fff" transform="rotate(107.943 6.354 34.904)" d="M0 0h28.394v34.446H0z"/></clipPath></defs></svg></svg>